<?xml version="1.0" encoding="utf-8"?>
<!-- Generator: Adobe Illustrator 26.3.1, SVG Export Plug-In . SVG Version: 6.00 Build 0)  -->
<svg version="1.1" id="Ebene_1" xmlns="http://www.w3.org/2000/svg" xmlns:xlink="http://www.w3.org/1999/xlink" x="0px" y="0px"
	 viewBox="0 0 396.9 370.9" style="enable-background:new 0 0 396.9 370.9;" xml:space="preserve">
<style type="text/css">
	.st0{enable-background:new    ;}
	.st1{fill:none;stroke:#EE7200;stroke-linecap:round;}
</style>
<g class="st0">
	<path class="st1" d="M118.1,237.5c-15.6-3.2-31.3-6.6-47.1-8.5c-12.8-1.5-25.8-1.9-38.6-0.3c-5.1,0.6-19.5,1.4-25.1,6.4
		c1.7,6.2,3.8,12.2,6.2,18.1c10.6-0.9,31.7-2.8,34.3-2.9c13.5-0.7,27.1-0.7,40.6,0.3c27.9,2.1,53.2,10.6,79.4,19.7
		c24.8,8.6,49.5,16.7,72.8,29c22.4,11.9,43.5,26.4,62.4,43.4c1.4,1.2,2.7,2.5,4.1,3.8c7.4-4.3,14.4-9,21.1-14.1
		c-12.1-9.9-24.3-19.6-37.5-27.9c-8.6-5.4-17.7-10.1-26.7-14.8c-22.8-11.7-45.8-23.2-69.8-32.2C169.4,248.4,143.8,242.8,118.1,237.5
		z"/>
	<path class="st1" d="M298.7,303.7c6.4,4.8,11.6,8.7,16.3,12.2c7.7-2.4,14.5-5.7,21.6-6.6c5.3-0.7,10.8-0.1,16.4,0.5
		c4.1-4.4,8-9.1,11.7-13.9C341.5,293.3,320.2,293,298.7,303.7z"/>
	<path class="st1" d="M322.2,320.4c3.7,2.8,7.1,5.3,10.8,8.2c5.1-4.1,9.9-8.5,14.5-13.1C338.3,313.3,330.1,313.3,322.2,320.4z"/>
	<path class="st1" d="M256.6,280.6c9.3,5,18.5,9.7,27.4,14.9c5.3,3.1,10,3.8,16,1.6c16.6-6,34.4-7.9,52-7.7c4.9,0.1,11.7,1.5,17,0.7
		c2.9-4.2,5.7-8.5,8.3-12.9C349.9,264.4,275.7,266.3,256.6,280.6z"/>
	<path class="st1" d="M195.7,369.4c3.5,1.1,7.3,1.2,10.8,1c5.4-0.4,12.2-0.9,16.8-3.9c-5.9-8.1-13.5-12.3-21.8-17.9
		c-18.7-12.7-38.4-23.6-60.6-28.8c-21.4-5-43.6-5.6-65.5-5.3c-1.6,0-13.7,0.8-18.3,3.1c7.9,7.6,16.4,14.6,25.5,20.9
		c4.4-0.4,9-2.6,13.2-3.4c25.3-4.5,53.4,5.1,75.4,16.8c7.5,4,12.1,9.2,18.5,14.4C191.5,367.8,193.5,368.7,195.7,369.4z"/>
	<path class="st1" d="M5.5,228c22.2-2,43.2-3.9,65.3-5.9c3.5-5.7,6.9-12.3,11.3-18.2c21-28.6,48.6-45.9,84.6-47
		c26-0.8,55.7,4.2,77.3,19.5c8.2,5.8,15.3,12.9,22.4,19.9c3.3,3.3,6.4,6.7,9.3,10.3c0.9,1.1,7.5,12,8,12c37-3.7,73.3-0.2,110.3,4.7
		c0.7-4.9,1.5-8.8,1.6-12.7c0.5-24.3,2.4-49.6-2.6-73.8c-1.6-7.8-3.9-15.4-6.8-22.8c-10.6-23.5-26.1-44.4-45.4-61.9
		c-7.6-6.4-15.7-12.2-24.2-17.2c-24.8-14.5-52.2-22.8-80.1-29.2c-22.2-5.1-45.4-6.4-68.2-4C118.2,9.5,74.3,34.6,44,70.3
		c-1.1,1.6-2.2,3.2-3.3,4.9C23,104,10.7,135,2.1,167.7c-0.4,1.4-0.5,2.7-0.9,4.1c-0.4,5-0.7,10-0.7,15.1
		C0.6,201.1,2.3,214.8,5.5,228z M309.4,201.1c-4.2,5.7-7.8,6.6-17.4,3.1C297.6,203.3,303.2,202.3,309.4,201.1z M289.6,168.6
		c-5.9,4.1-11.8,8.3-19.1,13.4C273,174.3,282.2,167.7,289.6,168.6z M240.6,133.7c2,6.7-1.6,11.5-4.1,16.6c-0.2,0.4-1.8,0-4.8,0
		C235.2,143.9,237.9,138.8,240.6,133.7z M183.2,119.9c1.2,6.4,2.5,12.8,0,19.1C180.7,132.7,179.8,126.3,183.2,119.9z M123.6,128.6
		c4.8,3.9,7.6,8.9,6.1,16.3c-2.8-5-5.5-10.1-8.3-15.1C122.2,129.4,122.9,129,123.6,128.6z M92.5,175.1c-8-1-16.2-8.9-16.7-16.3
		C81,163.8,86.1,168.8,92.5,175.1z M65.9,206.8c-6.1,3.6-9.8,3-17.2-3.8C54.2,204.2,59.8,205.4,65.9,206.8z"/>
	<path class="st1" d="M89.5,342.5c18.8,12.8,79.4,29.2,92.7,25C170.4,348.5,110.2,332.2,89.5,342.5z"/>
	<path class="st1" d="M358.3,245.4c-8.7-0.5-17.4-0.8-26.2-0.7c-13.7,0.2-27.4,0.2-41,1.6c-14.6,1.5-29.2,4.1-43.7,7
		c-9.3,1.8-19.1,2.8-28.8,9.1c10,4.5,18.7,8.6,27.5,12.3c1.6,0.7,4,0.6,5.6-0.1c17.9-7.6,37.1-9.1,56.1-10.5c20-1.4,40.2-2.1,60,3.5
		c7.2,2,11.3,2.7,14.1,1c2.2-4.2,4.2-8.6,6-13c0.2-1,0.5-1.8,0.7-2.9C378.8,247.9,368.7,246,358.3,245.4z"/>
	<path class="st1" d="M263.7,351.7c-15.3-12.2-33.6-21.5-51-30.3c-19-9.7-38.4-18.5-58.6-25.9c-11.5-4.2-23.1-6.3-34.8-8.1
		c-28.2-4.4-56.4-6.6-84.8-2.9c-1.1,0.1-2.6,0.4-4.1,1c6.4,9.6,13.6,18.7,21.7,27.1c4.3-0.2,8.8-1.2,12.5-1.4
		c47.6-3.3,97.8,3.2,136.8,32.9c6.5,4.9,13.1,9.6,19.7,14.3c4.2,3,9.3,8.5,14.6,9.9c1.2,0.3,2.4,0.4,3.7,0.3
		c5.8-0.8,11.6-1.4,17.3-2.2c2.7-0.4,5.5-0.7,8.2-1.2c1.2-0.4,2.4-0.7,3.6-1.1C272.5,361.2,267.3,354.6,263.7,351.7z"/>
	<path class="st1" d="M240.1,305.4c-23-12.8-47.2-23.5-72-32c-24.3-8.4-50.8-16.6-76.5-19.1c-23.2-2.3-47.9-2.6-70.8,2.2
		c-1.7,0.4-3.5,0.8-5.2,1.5c3.5,8,7.6,15.8,12.3,23.3c3.5-0.8,6.9-1.9,10.3-2.5c12.4-2,25.4-0.8,37.9-0.4c13,0.5,26,1.2,38.8,3.2
		c26,4,50.5,12.9,74.6,23.1s47.2,22.9,68.6,38c5.5,3.8,10.5,8.3,15.3,13.1c2.1,2.1,4,3.5,5.9,4.3c7.8-3.1,15.3-6.6,22.6-10.6
		c-9.1-9.2-46-34.7-50.5-37.6C247.6,309.6,243.9,307.4,240.1,305.4z"/>
	<path class="st1" d="M167.5,244c5.7,1.8,10.3,1.1,15.3-1.3c6.7-3.1,13.4-6.2,20.4-8.4c23-7.3,46.5-12.6,72.5-15.5
		c-2.6-4.2-3.9-7.4-6.1-9.7c-7.4-8.2-15.3-15.9-22.7-24.1c-4.9-5.5-10.8-9.1-17.5-11.3c-9.2-3.1-18.4-6.3-27.9-8.2
		c-15.4-3-30.8-6-46.8-2.8c-23.8,4.8-43.9,16-60.4,33.5c-7.5,8-14.5,16.7-17.5,29.1c3.6,0.8,7,1.7,10.4,2.2
		c12.3,1.7,24.7,2.5,36.8,5.1C138.6,235.5,153.2,239.6,167.5,244z"/>
	<path class="st1" d="M325.8,239.3c10.1,0.1,20.3-0.2,30.5,0.3c11.1,0.6,22.1,3.4,33.1,5c1.9,0.3,2.8-11.7,1.4-13.5
		c-3-4-9.6-4.1-14-4.5c-6.8-0.6-13.6-1.6-20.4-2.3c-15.6-1.6-31.4-2.3-47.1-1.5c-17.7,0.8-35.5,1.6-53,4c-15.2,2.1-30.1,6.2-45,10.3
		c-4.8,1.3-9.4,3-14,4.8c-3.3,1.3-9.6,2.5-12.3,4.9c-0.2,0.2-0.3,0.3-0.4,0.5c-2.2,4.4,19.2,9.3,21.7,9.5c8.6,1,15.8-2.6,23.9-4.8
		C261.2,243.3,293.6,238.9,325.8,239.3z"/>
</g>
</svg>
